<svg width="50" height="50" viewBox="0 0 50 50" fill="none" xmlns="http://www.w3.org/2000/svg">
<path d="M35.673 16.4095C28.0527 16.4783 20.7681 19.5537 15.4041 24.9667C10.0401 30.3796 7.03085 37.692 7.03126 45.3125C7.03126 45.9341 6.78433 46.5302 6.3448 46.9698C5.90526 47.4093 5.30912 47.6562 4.68751 47.6562C4.06591 47.6562 3.46977 47.4093 3.03023 46.9698C2.59069 46.5302 2.34376 45.9341 2.34376 45.3125C2.33562 36.445 5.83731 27.9346 12.0838 21.6407C18.3303 15.3467 26.8139 11.7808 35.6813 11.7219L38.8022 14.0625L35.673 16.4095ZM34.2188 25.3125L46.7188 15.9375C47.0098 15.7192 47.2461 15.4361 47.4088 15.1106C47.5715 14.7852 47.6563 14.4263 47.6563 14.0625C47.6563 13.6986 47.5715 13.3398 47.4088 13.0143C47.2461 12.6889 47.0098 12.4058 46.7188 12.1875L34.2188 2.81248C33.7215 2.43952 33.0964 2.27938 32.4811 2.36728C31.8657 2.45519 31.3105 2.78395 30.9375 3.28123C30.5646 3.77851 30.4044 4.40358 30.4923 5.01894C30.5802 5.63429 30.909 6.18952 31.4063 6.56248L41.4063 14.0625L31.4063 21.5625C31.16 21.7472 30.9526 21.9785 30.7958 22.2434C30.639 22.5082 30.5358 22.8013 30.4923 23.106C30.4488 23.4107 30.4657 23.721 30.5421 24.0192C30.6185 24.3173 30.7528 24.5975 30.9375 24.8437C31.3105 25.341 31.8657 25.6698 32.4811 25.7577C32.7858 25.8012 33.096 25.7843 33.3942 25.7079C33.6923 25.6315 33.9725 25.4972 34.2188 25.3125Z" fill="black"/>
</svg>
